<svg xmlns="http://www.w3.org/2000/svg" viewBox="0 0 64 64" width="64" height="64">
  <defs>
    <linearGradient id="bg" x1="0" y1="0" x2="1" y2="1">
      <stop offset="0%" stop-color="#A78BFA"/>
      <stop offset="50%" stop-color="#EC4899"/>
      <stop offset="100%" stop-color="#D4AF37"/>
    </linearGradient>
  </defs>
  <rect width="64" height="64" rx="16" fill="url(#bg)"/>
  <!-- candle flame -->
  <ellipse cx="32" cy="15" rx="3" ry="5" fill="#FDE68A"/>
  <!-- candle -->
  <rect x="30.5" y="19" width="3" height="9" rx="1.5" fill="#fff"/>
  <!-- cake top -->
  <path d="M16 30h32v8a4 4 0 0 1-4 4H20a4 4 0 0 1-4-4z" fill="#fff"/>
  <!-- cake base -->
  <path d="M14 44h36v6a4 4 0 0 1-4 4H18a4 4 0 0 1-4-4z" fill="#fff" opacity="0.85"/>
  <!-- drips -->
  <circle cx="24" cy="34" r="2" fill="#EC4899"/>
  <circle cx="40" cy="34" r="2" fill="#A78BFA"/>
</svg>
